<?xml version="1.0" encoding="UTF-8"?>
<!DOCTYPE svg PUBLIC "-//W3C//DTD SVG 1.1//EN" "http://www.w3.org/Graphics/SVG/1.1/DTD/svg11.dtd">
<svg xmlns="http://www.w3.org/2000/svg" version="1.1" width="2000px" height="1500px" style="shape-rendering:geometricPrecision; text-rendering:geometricPrecision; image-rendering:optimizeQuality; fill-rule:evenodd; clip-rule:evenodd" xmlns:xlink="http://www.w3.org/1999/xlink">
<g><path style="opacity:1" fill="#000000" d="M -0.5,-0.5 C 666.167,-0.5 1332.83,-0.5 1999.5,-0.5C 1999.5,499.5 1999.5,999.5 1999.5,1499.5C 1332.83,1499.5 666.167,1499.5 -0.5,1499.5C -0.5,999.5 -0.5,499.5 -0.5,-0.5 Z"/></g>
<g><path style="opacity:1" fill="#fdfdfd" d="M 294.5,333.5 C 571.167,333.5 847.833,333.5 1124.5,333.5C 1124.5,396.833 1124.5,460.167 1124.5,523.5C 1112.5,523.5 1100.5,523.5 1088.5,523.5C 1088.5,472.5 1088.5,421.5 1088.5,370.5C 835.833,370.5 583.167,370.5 330.5,370.5C 330.5,622.833 330.5,875.167 330.5,1127.5C 583.167,1127.5 835.833,1127.5 1088.5,1127.5C 1088.5,1076.5 1088.5,1025.5 1088.5,974.5C 1100.5,974.5 1112.5,974.5 1124.5,974.5C 1124.5,1037.83 1124.5,1101.17 1124.5,1164.5C 847.833,1164.5 571.167,1164.5 294.5,1164.5C 294.5,887.5 294.5,610.5 294.5,333.5 Z"/></g>
<g><path style="opacity:1" fill="#fdfdfd" d="M 843.5,805.5 C 843.783,806.289 844.283,806.956 845,807.5C 845.832,752.332 845.665,697.332 844.5,642.5C 844.98,627.009 841.813,612.343 835,598.5C 832.055,594.768 828.555,591.601 824.5,589C 816.571,585.82 808.404,583.654 800,582.5C 797.27,570.993 796.103,559.326 796.5,547.5C 838.497,548.747 880.497,548.747 922.5,547.5C 922.39,559.271 921.223,570.938 919,582.5C 901.957,583.351 891.29,592.018 887,608.5C 885.791,613.793 884.791,619.126 884,624.5C 882.54,731.822 882.04,839.155 882.5,946.5C 868.86,950.367 855.027,951.367 841,949.5C 768.283,852.956 695.783,756.29 623.5,659.5C 623.44,658.957 623.107,658.624 622.5,658.5C 621.168,720.332 621.168,781.999 622.5,843.5C 622.141,859.206 624.308,874.539 629,889.5C 633.422,900.256 641.255,907.089 652.5,910C 657.052,910.796 661.552,911.629 666,912.5C 668.265,924.04 669.098,935.707 668.5,947.5C 624.5,946.173 580.5,946.173 536.5,947.5C 535.904,935.64 537.071,923.974 540,912.5C 562.119,912.041 575.452,901.041 580,879.5C 582.642,867.647 583.975,855.647 584,843.5C 584.667,764.833 584.667,686.167 584,607.5C 579.927,600.092 574.427,593.925 567.5,589C 558.447,586.191 549.281,584.024 540,582.5C 538.082,570.904 536.916,559.238 536.5,547.5C 575.22,548.358 613.887,548.691 652.5,548.5C 715.944,634.413 779.61,720.08 843.5,805.5 Z"/></g>
<g><path style="opacity:1" fill="#fefefe" d="M 1089.5,947.5 C 1088.17,947.5 1086.83,947.5 1085.5,947.5C 1085.5,942.833 1085.5,938.167 1085.5,933.5C 1085.19,926.241 1086.35,919.241 1089,912.5C 1098.33,911.811 1107.17,909.311 1115.5,905C 1120.77,900.724 1123.94,895.224 1125,888.5C 1126.9,880.958 1127.9,873.291 1128,865.5C 1128.67,784.833 1128.67,704.167 1128,623.5C 1127.57,613.657 1125.23,604.324 1121,595.5C 1118.83,593.333 1116.67,591.167 1114.5,589C 1106.16,585.387 1097.49,582.887 1088.5,581.5C 1086.03,570.317 1085.03,558.983 1085.5,547.5C 1144.85,549.01 1204.18,548.677 1263.5,546.5C 1286.31,545.926 1308.98,547.426 1331.5,551C 1401.81,569.092 1429.98,613.925 1416,685.5C 1407.05,716.772 1388.22,739.939 1359.5,755C 1349.69,759.578 1339.69,763.578 1329.5,767C 1343.62,776.123 1355.46,787.623 1365,801.5C 1379.93,824.349 1393.6,848.016 1406,872.5C 1411.84,882.663 1419.01,891.83 1427.5,900C 1437.95,906.279 1449.28,909.445 1461.5,909.5C 1462.29,921.764 1460.96,933.764 1457.5,945.5C 1419.66,945.61 1381.99,947.444 1344.5,951C 1325.81,911.936 1307.31,872.77 1289,833.5C 1278.53,813.364 1264.7,795.864 1247.5,781C 1237.17,780.5 1226.84,780.334 1216.5,780.5C 1216.33,809.169 1216.5,837.835 1217,866.5C 1217.25,878.755 1219.92,890.422 1225,901.5C 1231.95,908.262 1240.28,911.929 1250,912.5C 1252.99,923.945 1254.16,935.611 1253.5,947.5C 1198.83,946.283 1144.16,946.283 1089.5,947.5 Z"/></g>
<g><path style="opacity:1" fill="#010101" d="M 1234.5,582.5 C 1298.13,576.971 1329.3,605.971 1328,669.5C 1325.52,701.332 1309.68,723.499 1280.5,736C 1259.74,743.394 1238.4,745.561 1216.5,742.5C 1216.5,690.5 1216.5,638.5 1216.5,586.5C 1222.8,586.011 1228.8,584.678 1234.5,582.5 Z"/></g>
<g><path style="opacity:1" fill="#8d8d8d" d="M 623.5,659.5 C 622.501,720.664 622.168,781.998 622.5,843.5C 621.168,781.999 621.168,720.332 622.5,658.5C 623.107,658.624 623.44,658.957 623.5,659.5 Z"/></g>
<g><path style="opacity:1" fill="#3b3b3b" d="M 844.5,642.5 C 845.665,697.332 845.832,752.332 845,807.5C 844.283,806.956 843.783,806.289 843.5,805.5C 844.499,751.336 844.832,697.003 844.5,642.5 Z"/></g>
<g><path style="opacity:1" fill="#555555" d="M 1085.5,933.5 C 1085.5,938.167 1085.5,942.833 1085.5,947.5C 1086.83,947.5 1088.17,947.5 1089.5,947.5C 1088.08,948.451 1086.41,948.784 1084.5,948.5C 1084.18,943.305 1084.51,938.305 1085.5,933.5 Z"/></g>
</svg>
